<?xml version="1.0" encoding="utf-8" standalone="no"?>
<!DOCTYPE svg PUBLIC "-//W3C//DTD SVG 1.1//EN"
  "http://www.w3.org/Graphics/SVG/1.1/DTD/svg11.dtd">
<svg xmlns:xlink="http://www.w3.org/1999/xlink" width="549.365312pt" height="246.514125pt" viewBox="0 0 549.365312 246.514125" xmlns="http://www.w3.org/2000/svg" version="1.1">
 <metadata>
  <rdf:RDF xmlns:dc="http://purl.org/dc/elements/1.1/" xmlns:cc="http://creativecommons.org/ns#" xmlns:rdf="http://www.w3.org/1999/02/22-rdf-syntax-ns#">
   <cc:Work>
    <dc:type rdf:resource="http://purl.org/dc/dcmitype/StillImage"/>
    <dc:format>image/svg+xml</dc:format>
    <dc:creator>
     <cc:Agent>
      <dc:title>Matplotlib v3.11.2, https://matplotlib.org/</dc:title>
     </cc:Agent>
    </dc:creator>
   </cc:Work>
  </rdf:RDF>
 </metadata>
 <defs>
  <style type="text/css">*{stroke-linejoin: round; stroke-linecap: butt}</style>
 </defs>
 <g id="figure_1">
  <g id="patch_1">
   <path d="M 0 246.514125 
L 549.365312 246.514125 
L 549.365312 0 
L 0 0 
z
" style="fill: #ffffff"/>
  </g>
  <g id="axes_1">
   <g id="patch_2">
    <path d="M 39.965313 226.814125 
L 542.165313 226.814125 
L 542.165313 38.318125 
L 39.965313 38.318125 
z
" style="fill: #ffffff"/>
   </g>
   <g id="matplotlib.axis_1">
    <g id="xtick_1">
     <g id="line2d_1"/>
     <g id="text_1">
      <text style="font-size: 9px; font-family: 'DejaVu Sans'; text-anchor: middle; fill: #52514e" x="94.420734" y="237.152016" transform="rotate(-0 94.420734 237.152016)">2025-01</text>
     </g>
    </g>
    <g id="xtick_2">
     <g id="line2d_2"/>
     <g id="text_2">
      <text style="font-size: 9px; font-family: 'DejaVu Sans'; text-anchor: middle; fill: #52514e" x="154.926758" y="237.152016" transform="rotate(-0 154.926758 237.152016)">2025-04</text>
     </g>
    </g>
    <g id="xtick_3">
     <g id="line2d_3"/>
     <g id="text_3">
      <text style="font-size: 9px; font-family: 'DejaVu Sans'; text-anchor: middle; fill: #52514e" x="215.432782" y="237.152016" transform="rotate(-0 215.432782 237.152016)">2025-07</text>
     </g>
    </g>
    <g id="xtick_4">
     <g id="line2d_4"/>
     <g id="text_4">
      <text style="font-size: 9px; font-family: 'DejaVu Sans'; text-anchor: middle; fill: #52514e" x="275.938806" y="237.152016" transform="rotate(-0 275.938806 237.152016)">2025-10</text>
     </g>
    </g>
    <g id="xtick_5">
     <g id="line2d_5"/>
     <g id="text_5">
      <text style="font-size: 9px; font-family: 'DejaVu Sans'; text-anchor: middle; fill: #52514e" x="336.444831" y="237.152016" transform="rotate(-0 336.444831 237.152016)">2026-01</text>
     </g>
    </g>
    <g id="xtick_6">
     <g id="line2d_6"/>
     <g id="text_6">
      <text style="font-size: 9px; font-family: 'DejaVu Sans'; text-anchor: middle; fill: #52514e" x="396.950855" y="237.152016" transform="rotate(-0 396.950855 237.152016)">2026-04</text>
     </g>
    </g>
    <g id="xtick_7">
     <g id="line2d_7"/>
     <g id="text_7">
      <text style="font-size: 9px; font-family: 'DejaVu Sans'; text-anchor: middle; fill: #52514e" x="457.456879" y="237.152016" transform="rotate(-0 457.456879 237.152016)">2026-07</text>
     </g>
    </g>
   </g>
   <g id="matplotlib.axis_2">
    <g id="ytick_1">
     <g id="line2d_8">
      <path d="M 39.965313 218.246125 
L 542.165313 218.246125 
" clip-path="url(#p2cc6f22aff)" style="fill: none; stroke: #e4e3df; stroke-width: 0.6; stroke-linecap: square"/>
     </g>
     <g id="line2d_9">
      <defs>
       <path id="m0b5e856ea1" d="M 0 0 
L -3.5 0 
" style="stroke: #52514e; stroke-width: 0.8"/>
      </defs>
      <g>
       <use xlink:href="#m0b5e856ea1" x="39.965313" y="218.246125" style="fill: #52514e; stroke: #52514e; stroke-width: 0.8"/>
      </g>
     </g>
     <g id="text_8">
      <text style="font-size: 9px; font-family: 'DejaVu Sans'; text-anchor: end; fill: #52514e" x="32.965313" y="221.66507" transform="rotate(-0 32.965313 221.66507)">0</text>
     </g>
    </g>
    <g id="ytick_2">
     <g id="line2d_10">
      <path d="M 39.965313 181.63074 
L 542.165313 181.63074 
" clip-path="url(#p2cc6f22aff)" style="fill: none; stroke: #e4e3df; stroke-width: 0.6; stroke-linecap: square"/>
     </g>
     <g id="line2d_11">
      <g>
       <use xlink:href="#m0b5e856ea1" x="39.965313" y="181.63074" style="fill: #52514e; stroke: #52514e; stroke-width: 0.8"/>
      </g>
     </g>
     <g id="text_9">
      <text style="font-size: 9px; font-family: 'DejaVu Sans'; text-anchor: end; fill: #52514e" x="32.965313" y="185.049686" transform="rotate(-0 32.965313 185.049686)">1,000</text>
     </g>
    </g>
    <g id="ytick_3">
     <g id="line2d_12">
      <path d="M 39.965313 145.015356 
L 542.165313 145.015356 
" clip-path="url(#p2cc6f22aff)" style="fill: none; stroke: #e4e3df; stroke-width: 0.6; stroke-linecap: square"/>
     </g>
     <g id="line2d_13">
      <g>
       <use xlink:href="#m0b5e856ea1" x="39.965313" y="145.015356" style="fill: #52514e; stroke: #52514e; stroke-width: 0.8"/>
      </g>
     </g>
     <g id="text_10">
      <text style="font-size: 9px; font-family: 'DejaVu Sans'; text-anchor: end; fill: #52514e" x="32.965313" y="148.434301" transform="rotate(-0 32.965313 148.434301)">2,000</text>
     </g>
    </g>
    <g id="ytick_4">
     <g id="line2d_14">
      <path d="M 39.965313 108.399971 
L 542.165313 108.399971 
" clip-path="url(#p2cc6f22aff)" style="fill: none; stroke: #e4e3df; stroke-width: 0.6; stroke-linecap: square"/>
     </g>
     <g id="line2d_15">
      <g>
       <use xlink:href="#m0b5e856ea1" x="39.965313" y="108.399971" style="fill: #52514e; stroke: #52514e; stroke-width: 0.8"/>
      </g>
     </g>
     <g id="text_11">
      <text style="font-size: 9px; font-family: 'DejaVu Sans'; text-anchor: end; fill: #52514e" x="32.965313" y="111.818916" transform="rotate(-0 32.965313 111.818916)">3,000</text>
     </g>
    </g>
    <g id="ytick_5">
     <g id="line2d_16">
      <path d="M 39.965313 71.784587 
L 542.165313 71.784587 
" clip-path="url(#p2cc6f22aff)" style="fill: none; stroke: #e4e3df; stroke-width: 0.6; stroke-linecap: square"/>
     </g>
     <g id="line2d_17">
      <g>
       <use xlink:href="#m0b5e856ea1" x="39.965313" y="71.784587" style="fill: #52514e; stroke: #52514e; stroke-width: 0.8"/>
      </g>
     </g>
     <g id="text_12">
      <text style="font-size: 9px; font-family: 'DejaVu Sans'; text-anchor: end; fill: #52514e" x="32.965313" y="75.203532" transform="rotate(-0 32.965313 75.203532)">4,000</text>
     </g>
    </g>
   </g>
   <g id="line2d_18">
    <path d="M 54.083385 218.246125 
L 74.252059 218.246125 
L 94.420734 218.172894 
L 114.589409 218.172894 
L 134.758084 218.136279 
L 154.926758 218.136279 
L 175.095433 218.136279 
L 195.264108 218.136279 
L 215.432782 218.026433 
L 235.601457 218.026433 
L 255.770132 217.953202 
L 275.938806 214.987356 
L 296.107481 212.314433 
L 316.276156 207.33474 
L 336.444831 202.171971 
L 356.613505 188.331356 
L 376.78218 168.009817 
L 396.950855 151.020279 
L 417.119529 130.552279 
L 437.288204 116.272279 
L 457.456879 97.342125 
L 477.625553 80.059663 
L 497.794228 61.166125 
" clip-path="url(#p2cc6f22aff)" style="fill: none; stroke: #2a78d6; stroke-width: 2; stroke-linecap: square"/>
   </g>
   <g id="line2d_19">
    <path d="M 54.083385 218.246125 
L 74.252059 218.246125 
L 94.420734 218.172894 
L 114.589409 218.172894 
L 134.758084 218.136279 
L 154.926758 218.136279 
L 175.095433 218.136279 
L 195.264108 218.099663 
L 215.432782 217.989817 
L 235.601457 217.989817 
L 255.770132 217.879971 
L 275.938806 214.108587 
L 296.107481 211.06951 
L 316.276156 205.467356 
L 336.444831 199.791971 
L 356.613505 183.93751 
L 376.78218 162.883663 
L 396.950855 145.161817 
L 417.119529 123.00951 
L 437.288204 107.960587 
L 457.456879 87.712279 
L 477.625553 68.123048 
L 497.794228 46.886125 
" clip-path="url(#p2cc6f22aff)" style="fill: none; stroke: #eb6834; stroke-width: 2; stroke-linecap: square"/>
   </g>
   <g id="patch_3">
    <path d="M 39.965313 226.814125 
L 542.165313 226.814125 
" style="fill: none; stroke: #e4e3df; stroke-width: 0.8; stroke-linejoin: miter; stroke-linecap: square"/>
   </g>
   <g id="text_13">
    <text style="font-size: 8.5px; font-family: 'DejaVu Sans'; text-anchor: start; fill: #0b0b0b" x="503.794228" y="63.374133" transform="rotate(-0 503.794228 63.374133)">4,290</text>
   </g>
   <g id="text_14">
    <text style="font-size: 8.5px; font-family: 'DejaVu Sans'; text-anchor: start; fill: #0b0b0b" x="503.794228" y="49.094133" transform="rotate(-0 503.794228 49.094133)">4,680</text>
   </g>
   <g id="text_15">
    <text style="font-size: 8.5px; font-family: 'DejaVu Sans'; text-anchor: start; fill: #52514e" x="39.965313" y="30.621253" transform="rotate(-0 39.965313 30.621253)">TimeToBuildBob · sum of monthly ledger rows · as of 2026-09-26</text>
   </g>
   <g id="text_16">
    <text style="font-weight: 700; font-size: 12px; font-family: 'DejaVu Sans'; text-anchor: start; fill: #0b0b0b" x="39.965313" y="16.318125" transform="rotate(-0 39.965313 16.318125)">Lifetime public PRs (cumulative)</text>
   </g>
   <g id="legend_1">
    <g id="line2d_20">
     <path d="M 48.065313 50.106719 
L 57.065313 50.106719 
L 66.065313 50.106719 
" style="fill: none; stroke: #2a78d6; stroke-width: 2; stroke-linecap: square"/>
    </g>
    <g id="text_17">
     <text style="font-size: 9px; font-family: 'DejaVu Sans'; text-anchor: start" x="73.265313" y="53.256719" transform="rotate(-0 73.265313 53.256719)">Merged public PRs</text>
    </g>
    <g id="line2d_21">
     <path d="M 48.065313 63.607422 
L 57.065313 63.607422 
L 66.065313 63.607422 
" style="fill: none; stroke: #eb6834; stroke-width: 2; stroke-linecap: square"/>
    </g>
    <g id="text_18">
     <text style="font-size: 9px; font-family: 'DejaVu Sans'; text-anchor: start" x="73.265313" y="66.757422" transform="rotate(-0 73.265313 66.757422)">Opened public PRs</text>
    </g>
   </g>
  </g>
 </g>
 <defs>
  <clipPath id="p2cc6f22aff">
   <rect x="39.965313" y="38.318125" width="502.2" height="188.496"/>
  </clipPath>
 </defs>
</svg>
