<?xml version="1.0" encoding="utf-8" standalone="no"?>
<!DOCTYPE svg PUBLIC "-//W3C//DTD SVG 1.1//EN"
  "http://www.w3.org/Graphics/SVG/1.1/DTD/svg11.dtd">
<svg xmlns:xlink="http://www.w3.org/1999/xlink" width="548.381998pt" height="246.514125pt" viewBox="0 0 548.381998 246.514125" xmlns="http://www.w3.org/2000/svg" version="1.1">
 <metadata>
  <rdf:RDF xmlns:dc="http://purl.org/dc/elements/1.1/" xmlns:cc="http://creativecommons.org/ns#" xmlns:rdf="http://www.w3.org/1999/02/22-rdf-syntax-ns#">
   <cc:Work>
    <dc:type rdf:resource="http://purl.org/dc/dcmitype/StillImage"/>
    <dc:format>image/svg+xml</dc:format>
    <dc:creator>
     <cc:Agent>
      <dc:title>Matplotlib v3.11.2, https://matplotlib.org/</dc:title>
     </cc:Agent>
    </dc:creator>
   </cc:Work>
  </rdf:RDF>
 </metadata>
 <defs>
  <style type="text/css">*{stroke-linejoin: round; stroke-linecap: butt}</style>
 </defs>
 <g id="figure_1">
  <g id="patch_1">
   <path d="M 0 246.514125 
L 548.381998 246.514125 
L 548.381998 0 
L 0 0 
z
" style="fill: #ffffff"/>
  </g>
  <g id="axes_1">
   <g id="patch_2">
    <path d="M 31.37875 226.814125 
L 533.57875 226.814125 
L 533.57875 38.318125 
L 31.37875 38.318125 
z
" style="fill: #ffffff"/>
   </g>
   <g id="matplotlib.axis_1">
    <g id="xtick_1">
     <g id="line2d_1"/>
     <g id="text_1">
      <text style="font-size: 9px; font-family: 'DejaVu Sans'; text-anchor: middle; fill: #52514e" x="86.950061" y="237.152016" transform="rotate(-0 86.950061 237.152016)">2025-01</text>
     </g>
    </g>
    <g id="xtick_2">
     <g id="line2d_2"/>
     <g id="text_2">
      <text style="font-size: 9px; font-family: 'DejaVu Sans'; text-anchor: middle; fill: #52514e" x="148.695963" y="237.152016" transform="rotate(-0 148.695963 237.152016)">2025-04</text>
     </g>
    </g>
    <g id="xtick_3">
     <g id="line2d_3"/>
     <g id="text_3">
      <text style="font-size: 9px; font-family: 'DejaVu Sans'; text-anchor: middle; fill: #52514e" x="210.441865" y="237.152016" transform="rotate(-0 210.441865 237.152016)">2025-07</text>
     </g>
    </g>
    <g id="xtick_4">
     <g id="line2d_4"/>
     <g id="text_4">
      <text style="font-size: 9px; font-family: 'DejaVu Sans'; text-anchor: middle; fill: #52514e" x="272.187766" y="237.152016" transform="rotate(-0 272.187766 237.152016)">2025-10</text>
     </g>
    </g>
    <g id="xtick_5">
     <g id="line2d_5"/>
     <g id="text_5">
      <text style="font-size: 9px; font-family: 'DejaVu Sans'; text-anchor: middle; fill: #52514e" x="333.933668" y="237.152016" transform="rotate(-0 333.933668 237.152016)">2026-01</text>
     </g>
    </g>
    <g id="xtick_6">
     <g id="line2d_6"/>
     <g id="text_6">
      <text style="font-size: 9px; font-family: 'DejaVu Sans'; text-anchor: middle; fill: #52514e" x="395.67957" y="237.152016" transform="rotate(-0 395.67957 237.152016)">2026-04</text>
     </g>
    </g>
    <g id="xtick_7">
     <g id="line2d_7"/>
     <g id="text_7">
      <text style="font-size: 9px; font-family: 'DejaVu Sans'; text-anchor: middle; fill: #52514e" x="457.425471" y="237.152016" transform="rotate(-0 457.425471 237.152016)">2026-07</text>
     </g>
    </g>
    <g id="xtick_8">
     <g id="line2d_8"/>
     <g id="text_8">
      <text style="font-size: 9px; font-family: 'DejaVu Sans'; text-anchor: middle; fill: #52514e" x="519.171373" y="237.152016" transform="rotate(-0 519.171373 237.152016)">2026-10</text>
     </g>
    </g>
   </g>
   <g id="matplotlib.axis_2">
    <g id="ytick_1">
     <g id="line2d_9">
      <path d="M 31.37875 226.814125 
L 533.57875 226.814125 
" clip-path="url(#pf2102f68cb)" style="fill: none; stroke: #e4e3df; stroke-width: 0.6; stroke-linecap: square"/>
     </g>
     <g id="line2d_10">
      <defs>
       <path id="m0b5e856ea1" d="M 0 0 
L -3.5 0 
" style="stroke: #52514e; stroke-width: 0.8"/>
      </defs>
      <g>
       <use xlink:href="#m0b5e856ea1" x="31.37875" y="226.814125" style="fill: #52514e; stroke: #52514e; stroke-width: 0.8"/>
      </g>
     </g>
     <g id="text_9">
      <text style="font-size: 9px; font-family: 'DejaVu Sans'; text-anchor: end; fill: #52514e" x="24.37875" y="230.23307" transform="rotate(-0 24.37875 230.23307)">0</text>
     </g>
    </g>
    <g id="ytick_2">
     <g id="line2d_11">
      <path d="M 31.37875 200.257912 
L 533.57875 200.257912 
" clip-path="url(#pf2102f68cb)" style="fill: none; stroke: #e4e3df; stroke-width: 0.6; stroke-linecap: square"/>
     </g>
     <g id="line2d_12">
      <g>
       <use xlink:href="#m0b5e856ea1" x="31.37875" y="200.257912" style="fill: #52514e; stroke: #52514e; stroke-width: 0.8"/>
      </g>
     </g>
     <g id="text_10">
      <text style="font-size: 9px; font-family: 'DejaVu Sans'; text-anchor: end; fill: #52514e" x="24.37875" y="203.676857" transform="rotate(-0 24.37875 203.676857)">100</text>
     </g>
    </g>
    <g id="ytick_3">
     <g id="line2d_13">
      <path d="M 31.37875 173.701699 
L 533.57875 173.701699 
" clip-path="url(#pf2102f68cb)" style="fill: none; stroke: #e4e3df; stroke-width: 0.6; stroke-linecap: square"/>
     </g>
     <g id="line2d_14">
      <g>
       <use xlink:href="#m0b5e856ea1" x="31.37875" y="173.701699" style="fill: #52514e; stroke: #52514e; stroke-width: 0.8"/>
      </g>
     </g>
     <g id="text_11">
      <text style="font-size: 9px; font-family: 'DejaVu Sans'; text-anchor: end; fill: #52514e" x="24.37875" y="177.120644" transform="rotate(-0 24.37875 177.120644)">200</text>
     </g>
    </g>
    <g id="ytick_4">
     <g id="line2d_15">
      <path d="M 31.37875 147.145486 
L 533.57875 147.145486 
" clip-path="url(#pf2102f68cb)" style="fill: none; stroke: #e4e3df; stroke-width: 0.6; stroke-linecap: square"/>
     </g>
     <g id="line2d_16">
      <g>
       <use xlink:href="#m0b5e856ea1" x="31.37875" y="147.145486" style="fill: #52514e; stroke: #52514e; stroke-width: 0.8"/>
      </g>
     </g>
     <g id="text_12">
      <text style="font-size: 9px; font-family: 'DejaVu Sans'; text-anchor: end; fill: #52514e" x="24.37875" y="150.564431" transform="rotate(-0 24.37875 150.564431)">300</text>
     </g>
    </g>
    <g id="ytick_5">
     <g id="line2d_17">
      <path d="M 31.37875 120.589273 
L 533.57875 120.589273 
" clip-path="url(#pf2102f68cb)" style="fill: none; stroke: #e4e3df; stroke-width: 0.6; stroke-linecap: square"/>
     </g>
     <g id="line2d_18">
      <g>
       <use xlink:href="#m0b5e856ea1" x="31.37875" y="120.589273" style="fill: #52514e; stroke: #52514e; stroke-width: 0.8"/>
      </g>
     </g>
     <g id="text_13">
      <text style="font-size: 9px; font-family: 'DejaVu Sans'; text-anchor: end; fill: #52514e" x="24.37875" y="124.008218" transform="rotate(-0 24.37875 124.008218)">400</text>
     </g>
    </g>
    <g id="ytick_6">
     <g id="line2d_19">
      <path d="M 31.37875 94.03306 
L 533.57875 94.03306 
" clip-path="url(#pf2102f68cb)" style="fill: none; stroke: #e4e3df; stroke-width: 0.6; stroke-linecap: square"/>
     </g>
     <g id="line2d_20">
      <g>
       <use xlink:href="#m0b5e856ea1" x="31.37875" y="94.03306" style="fill: #52514e; stroke: #52514e; stroke-width: 0.8"/>
      </g>
     </g>
     <g id="text_14">
      <text style="font-size: 9px; font-family: 'DejaVu Sans'; text-anchor: end; fill: #52514e" x="24.37875" y="97.452005" transform="rotate(-0 24.37875 97.452005)">500</text>
     </g>
    </g>
    <g id="ytick_7">
     <g id="line2d_21">
      <path d="M 31.37875 67.476847 
L 533.57875 67.476847 
" clip-path="url(#pf2102f68cb)" style="fill: none; stroke: #e4e3df; stroke-width: 0.6; stroke-linecap: square"/>
     </g>
     <g id="line2d_22">
      <g>
       <use xlink:href="#m0b5e856ea1" x="31.37875" y="67.476847" style="fill: #52514e; stroke: #52514e; stroke-width: 0.8"/>
      </g>
     </g>
     <g id="text_15">
      <text style="font-size: 9px; font-family: 'DejaVu Sans'; text-anchor: end; fill: #52514e" x="24.37875" y="70.895792" transform="rotate(-0 24.37875 70.895792)">600</text>
     </g>
    </g>
    <g id="ytick_8">
     <g id="line2d_23">
      <path d="M 31.37875 40.920634 
L 533.57875 40.920634 
" clip-path="url(#pf2102f68cb)" style="fill: none; stroke: #e4e3df; stroke-width: 0.6; stroke-linecap: square"/>
     </g>
     <g id="line2d_24">
      <g>
       <use xlink:href="#m0b5e856ea1" x="31.37875" y="40.920634" style="fill: #52514e; stroke: #52514e; stroke-width: 0.8"/>
      </g>
     </g>
     <g id="text_16">
      <text style="font-size: 9px; font-family: 'DejaVu Sans'; text-anchor: end; fill: #52514e" x="24.37875" y="44.339579" transform="rotate(-0 24.37875 44.339579)">700</text>
     </g>
    </g>
   </g>
   <g id="patch_3">
    <path d="M 37.75916 226.814125 
L 53.813094 226.814125 
L 53.813094 226.814125 
L 37.75916 226.814125 
z
" clip-path="url(#pf2102f68cb)" style="fill: #2a78d6; stroke: #ffffff; stroke-linejoin: miter"/>
   </g>
   <g id="patch_4">
    <path d="M 58.341127 226.814125 
L 74.395061 226.814125 
L 74.395061 226.814125 
L 58.341127 226.814125 
z
" clip-path="url(#pf2102f68cb)" style="fill: #2a78d6; stroke: #ffffff; stroke-linejoin: miter"/>
   </g>
   <g id="patch_5">
    <path d="M 78.923094 226.814125 
L 94.977029 226.814125 
L 94.977029 226.283001 
L 78.923094 226.283001 
z
" clip-path="url(#pf2102f68cb)" style="fill: #2a78d6; stroke: #ffffff; stroke-linejoin: miter"/>
   </g>
   <g id="patch_6">
    <path d="M 99.505061 226.814125 
L 115.558996 226.814125 
L 115.558996 226.814125 
L 99.505061 226.814125 
z
" clip-path="url(#pf2102f68cb)" style="fill: #2a78d6; stroke: #ffffff; stroke-linejoin: miter"/>
   </g>
   <g id="patch_7">
    <path d="M 120.087029 226.814125 
L 136.140963 226.814125 
L 136.140963 226.548563 
L 120.087029 226.548563 
z
" clip-path="url(#pf2102f68cb)" style="fill: #2a78d6; stroke: #ffffff; stroke-linejoin: miter"/>
   </g>
   <g id="patch_8">
    <path d="M 140.668996 226.814125 
L 156.72293 226.814125 
L 156.72293 226.814125 
L 140.668996 226.814125 
z
" clip-path="url(#pf2102f68cb)" style="fill: #2a78d6; stroke: #ffffff; stroke-linejoin: miter"/>
   </g>
   <g id="patch_9">
    <path d="M 161.250963 226.814125 
L 177.304898 226.814125 
L 177.304898 226.814125 
L 161.250963 226.814125 
z
" clip-path="url(#pf2102f68cb)" style="fill: #2a78d6; stroke: #ffffff; stroke-linejoin: miter"/>
   </g>
   <g id="patch_10">
    <path d="M 181.83293 226.814125 
L 197.886865 226.814125 
L 197.886865 226.814125 
L 181.83293 226.814125 
z
" clip-path="url(#pf2102f68cb)" style="fill: #2a78d6; stroke: #ffffff; stroke-linejoin: miter"/>
   </g>
   <g id="patch_11">
    <path d="M 202.414898 226.814125 
L 218.468832 226.814125 
L 218.468832 226.017439 
L 202.414898 226.017439 
z
" clip-path="url(#pf2102f68cb)" style="fill: #2a78d6; stroke: #ffffff; stroke-linejoin: miter"/>
   </g>
   <g id="patch_12">
    <path d="M 222.996865 226.814125 
L 239.050799 226.814125 
L 239.050799 226.814125 
L 222.996865 226.814125 
z
" clip-path="url(#pf2102f68cb)" style="fill: #2a78d6; stroke: #ffffff; stroke-linejoin: miter"/>
   </g>
   <g id="patch_13">
    <path d="M 243.578832 226.814125 
L 259.632766 226.814125 
L 259.632766 226.283001 
L 243.578832 226.283001 
z
" clip-path="url(#pf2102f68cb)" style="fill: #2a78d6; stroke: #ffffff; stroke-linejoin: miter"/>
   </g>
   <g id="patch_14">
    <path d="M 264.160799 226.814125 
L 280.214734 226.814125 
L 280.214734 205.303592 
L 264.160799 205.303592 
z
" clip-path="url(#pf2102f68cb)" style="fill: #2a78d6; stroke: #ffffff; stroke-linejoin: miter"/>
   </g>
   <g id="patch_15">
    <path d="M 284.742766 226.814125 
L 300.796701 226.814125 
L 300.796701 207.428089 
L 284.742766 207.428089 
z
" clip-path="url(#pf2102f68cb)" style="fill: #2a78d6; stroke: #ffffff; stroke-linejoin: miter"/>
   </g>
   <g id="patch_16">
    <path d="M 305.324734 226.814125 
L 321.378668 226.814125 
L 321.378668 190.697675 
L 305.324734 190.697675 
z
" clip-path="url(#pf2102f68cb)" style="fill: #2a78d6; stroke: #ffffff; stroke-linejoin: miter"/>
   </g>
   <g id="patch_17">
    <path d="M 325.906701 226.814125 
L 341.960635 226.814125 
L 341.960635 189.369865 
L 325.906701 189.369865 
z
" clip-path="url(#pf2102f68cb)" style="fill: #2a78d6; stroke: #ffffff; stroke-linejoin: miter"/>
   </g>
   <g id="patch_18">
    <path d="M 346.488668 226.814125 
L 362.542602 226.814125 
L 362.542602 126.43164 
L 346.488668 126.43164 
z
" clip-path="url(#pf2102f68cb)" style="fill: #2a78d6; stroke: #ffffff; stroke-linejoin: miter"/>
   </g>
   <g id="patch_19">
    <path d="M 367.070635 226.814125 
L 383.12457 226.814125 
L 383.12457 79.427143 
L 367.070635 79.427143 
z
" clip-path="url(#pf2102f68cb)" style="fill: #2a78d6; stroke: #ffffff; stroke-linejoin: miter"/>
   </g>
   <g id="patch_20">
    <path d="M 387.652602 226.814125 
L 403.706537 226.814125 
L 403.706537 103.593297 
L 387.652602 103.593297 
z
" clip-path="url(#pf2102f68cb)" style="fill: #2a78d6; stroke: #ffffff; stroke-linejoin: miter"/>
   </g>
   <g id="patch_21">
    <path d="M 408.23457 226.814125 
L 424.288504 226.814125 
L 424.288504 78.364894 
L 408.23457 78.364894 
z
" clip-path="url(#pf2102f68cb)" style="fill: #2a78d6; stroke: #ffffff; stroke-linejoin: miter"/>
   </g>
   <g id="patch_22">
    <path d="M 428.816537 226.814125 
L 444.870471 226.814125 
L 444.870471 123.244894 
L 428.816537 123.244894 
z
" clip-path="url(#pf2102f68cb)" style="fill: #2a78d6; stroke: #ffffff; stroke-linejoin: miter"/>
   </g>
   <g id="patch_23">
    <path d="M 449.398504 226.814125 
L 465.452439 226.814125 
L 465.452439 89.518504 
L 449.398504 89.518504 
z
" clip-path="url(#pf2102f68cb)" style="fill: #2a78d6; stroke: #ffffff; stroke-linejoin: miter"/>
   </g>
   <g id="patch_24">
    <path d="M 469.980471 226.814125 
L 486.034406 226.814125 
L 486.034406 101.4688 
L 469.980471 101.4688 
z
" clip-path="url(#pf2102f68cb)" style="fill: #2a78d6; stroke: #ffffff; stroke-linejoin: miter"/>
   </g>
   <g id="patch_25">
    <path d="M 490.562439 226.814125 
L 506.616373 226.814125 
L 506.616373 47.294125 
L 490.562439 47.294125 
z
" clip-path="url(#pf2102f68cb)" style="fill: #2a78d6; stroke: #ffffff; stroke-linejoin: miter"/>
   </g>
   <g id="patch_26">
    <path d="M 511.144406 226.814125 
L 527.19834 226.814125 
L 527.19834 137.850811 
L 511.144406 137.850811 
z
" clip-path="url(#pf2102f68cb)" style="fill: url(#h6089867b84); opacity: 0.45; stroke: #ffffff; stroke-linejoin: miter"/>
   </g>
   <g id="patch_27">
    <path d="M 31.37875 226.814125 
L 533.57875 226.814125 
" style="fill: none; stroke: #e4e3df; stroke-width: 0.8; stroke-linejoin: miter; stroke-linecap: square"/>
   </g>
   <g id="text_17">
    <text style="font-size: 8px; font-family: 'DejaVu Sans'; text-anchor: middle; fill: #0b0b0b" x="498.589406" y="44.294125" transform="rotate(-0 498.589406 44.294125)">676</text>
   </g>
   <g id="text_18">
    <text style="font-size: 8px; font-family: 'DejaVu Sans'; text-anchor: middle; fill: #0b0b0b" x="519.171373" y="134.850811" transform="rotate(-0 519.171373 134.850811)">335 (open)</text>
   </g>
   <g id="text_19">
    <text style="font-size: 8.5px; font-family: 'DejaVu Sans'; text-anchor: start; fill: #52514e" x="31.37875" y="30.621253" transform="rotate(-0 31.37875 30.621253)">TimeToBuildBob · hatched = open month, still recomputed · as of 2026-10-07</text>
   </g>
   <g id="text_20">
    <text style="font-weight: 700; font-size: 12px; font-family: 'DejaVu Sans'; text-anchor: start; fill: #0b0b0b" x="31.37875" y="16.318125" transform="rotate(-0 31.37875 16.318125)">Merged public PRs per month</text>
   </g>
  </g>
 </g>
 <defs>
  <clipPath id="pf2102f68cb">
   <rect x="31.37875" y="38.318125" width="502.2" height="188.496"/>
  </clipPath>
 </defs>
 <defs>
  <pattern id="h6089867b84" patternUnits="userSpaceOnUse" x="0" y="0" width="72" height="72">
   <rect x="0" y="0" width="73" height="73" fill="#2a78d6"/>
   <path d="M -36 36 
L 36 -36 
M -32 40 
L 40 -32 
M -28 44 
L 44 -28 
M -24 48 
L 48 -24 
M -20 52 
L 52 -20 
M -16 56 
L 56 -16 
M -12 60 
L 60 -12 
M -8 64 
L 64 -8 
M -4 68 
L 68 -4 
M 0 72 
L 72 0 
M 4 76 
L 76 4 
M 8 80 
L 80 8 
M 12 84 
L 84 12 
M 16 88 
L 88 16 
M 20 92 
L 92 20 
M 24 96 
L 96 24 
M 28 100 
L 100 28 
M 32 104 
L 104 32 
M 36 108 
L 108 36 
" style="fill: #ffffff; stroke: #ffffff; stroke-width: 1.0; stroke-linecap: butt; stroke-linejoin: miter; stroke-opacity: 0.45"/>
  </pattern>
 </defs>
</svg>
